<svg height='300px' width='300px'  fill="#000000" xmlns="http://www.w3.org/2000/svg" xmlns:xlink="http://www.w3.org/1999/xlink" version="1.1" x="0px" y="0px" viewBox="0 0 32 32" enable-background="new 0 0 32 32" xml:space="preserve"><g display="none"><path display="inline" d="M16,6C10.477,6,6,10.477,6,16c0,5.522,4.477,10,10,10c5.523,0,10-4.478,10-10C26,10.477,21.523,6,16,6z    M16,22c-3.309,0-6-2.691-6-6c0-3.309,2.691-6,6-6s6,2.691,6,6C22,19.309,19.309,22,16,22z M25.769,9.057l1.543-1.543   c0.781-0.782,0.781-2.047,0-2.828c-0.781-0.782-2.047-0.782-2.828,0l-1.543,1.543C24.035,7.008,24.99,7.964,25.769,9.057z    M6.229,9.059c0.779-1.094,1.736-2.05,2.83-2.829L7.516,4.687c-0.781-0.781-2.047-0.782-2.83,0c-0.781,0.781-0.779,2.047,0,2.828   L6.229,9.059z M18,4.181V2c0-1.105-0.895-2-2-2c-1.106,0-2,0.896-2,2v2.181C14.652,4.07,15.316,4,16,4   C16.684,4,17.348,4.07,18,4.181z M30,14h-2.18C27.93,14.652,28,15.317,28,16c0,0.683-0.07,1.348-0.18,2H30c1.105,0,2-0.895,2-2   C32,14.894,31.105,14,30,14z M25.771,22.941c-0.779,1.094-1.736,2.05-2.83,2.829l1.543,1.543c0.781,0.781,2.047,0.782,2.83,0   c0.781-0.781,0.779-2.047,0-2.828L25.771,22.941z M14,27.819V30c0,1.104,0.894,2,2,2c1.105,0,2-0.896,2-2v-2.181   C17.348,27.93,16.684,28,16,28C15.316,28,14.652,27.93,14,27.819z M4,16c0-0.683,0.07-1.348,0.18-2H2c-1.105,0-2,0.894-2,2   c0,1.105,0.894,2,2,2h2.18C4.07,17.348,4,16.683,4,16z M6.229,22.941l-1.543,1.543c-0.781,0.781-0.781,2.047,0,2.828   c0.781,0.781,2.047,0.781,2.828,0l1.543-1.543C7.963,24.99,7.008,24.034,6.229,22.941z"></path></g><g><path fill-rule="evenodd" clip-rule="evenodd" d="M15.998,22c-2.609,0-4.805-1.676-5.633-4H0.139c0.984,7.891,7.703,14,15.859,14   c8.16,0,14.875-6.109,15.863-14h-10.23C20.807,20.324,18.607,22,15.998,22z M15.998,10c2.609,0,4.809,1.676,5.633,4h10.23   C30.873,6.109,24.158,0,15.998,0C7.842,0,1.123,6.109,0.139,14h10.227C11.193,11.676,13.389,10,15.998,10z M11.998,16   c0,2.209,1.793,4,4,4c2.211,0,4-1.791,4-4c0-2.209-1.789-4-4-4C13.791,12,11.998,13.791,11.998,16z M17.998,16c0,1.105-0.895,2-2,2   s-2-0.895-2-2c0-1.105,0.894-2,2-2S17.998,14.895,17.998,16z"></path></g></svg>